<?xml version="1.0" encoding="iso-8859-1"?>
<!-- Generator: Adobe Illustrator 19.0.0, SVG Export Plug-In . SVG Version: 6.00 Build 0)  -->
<svg version="1.1" id="Layer_1" xmlns="http://www.w3.org/2000/svg" xmlns:xlink="http://www.w3.org/1999/xlink" x="0px" y="0px"
	 viewBox="0 0 491.564 491.564" style="enable-background:new 0 0 491.564 491.564;" xml:space="preserve">
<g>
	<g>
		<g>
			<path d="M490.673,157.974c-0.047-0.157-0.098-0.312-0.149-0.467c-0.139-0.422-0.293-0.842-0.462-1.261
				c-0.061-0.152-0.115-0.307-0.179-0.457L428.446,12.435c-3.227-7.53-10.632-12.413-18.824-12.413H81.942
				c-8.193,0-15.597,4.882-18.824,12.413L1.681,155.789c-0.064,0.15-0.118,0.305-0.179,0.457c-0.169,0.419-0.323,0.84-0.462,1.261
				c-0.051,0.156-0.102,0.31-0.149,0.467c-0.691,2.274-0.969,4.566-0.869,6.799v306.289c0,11.311,9.169,20.48,20.48,20.48h450.56
				c11.311,0,20.48-9.169,20.48-20.48V164.773C491.642,162.54,491.365,160.248,490.673,157.974z M95.447,40.982h300.671
				l43.886,102.4H51.561L95.447,40.982z M450.582,450.582h-409.6v-266.24h409.6V450.582z"/>
			<path d="M137.384,321.704l5.998-5.998v73.437c0,11.311,9.169,20.48,20.48,20.48s20.48-9.169,20.48-20.48v-73.437l5.998,5.998
				c7.998,7.998,20.965,7.998,28.963,0c7.998-7.998,7.998-20.965,0-28.963l-40.959-40.959c-0.477-0.477-0.98-0.929-1.502-1.357
				c-0.236-0.194-0.485-0.362-0.727-0.544c-0.292-0.219-0.578-0.445-0.882-0.648c-0.291-0.195-0.594-0.364-0.892-0.542
				c-0.275-0.164-0.543-0.337-0.826-0.488c-0.305-0.163-0.619-0.301-0.93-0.448c-0.295-0.139-0.584-0.286-0.886-0.411
				c-0.302-0.125-0.611-0.226-0.918-0.336c-0.324-0.116-0.643-0.24-0.974-0.341c-0.307-0.093-0.62-0.161-0.93-0.239
				c-0.337-0.085-0.67-0.179-1.013-0.247c-0.359-0.071-0.721-0.113-1.083-0.165c-0.3-0.043-0.595-0.1-0.898-0.13
				c-0.672-0.066-1.346-0.102-2.021-0.102l0,0c0,0-0.001,0-0.001,0c-0.674,0-1.348,0.036-2.02,0.102
				c-0.304,0.03-0.599,0.087-0.9,0.13c-0.361,0.052-0.723,0.094-1.081,0.165c-0.344,0.068-0.677,0.163-1.015,0.248
				c-0.31,0.078-0.622,0.146-0.929,0.239c-0.331,0.1-0.651,0.225-0.975,0.341c-0.306,0.11-0.615,0.211-0.916,0.335
				c-0.302,0.125-0.592,0.273-0.887,0.412c-0.311,0.146-0.624,0.284-0.929,0.447c-0.283,0.152-0.552,0.324-0.827,0.489
				c-0.298,0.178-0.6,0.347-0.891,0.541c-0.304,0.204-0.591,0.43-0.884,0.65c-0.242,0.181-0.49,0.349-0.726,0.543
				c-0.522,0.428-1.025,0.88-1.502,1.357l-40.959,40.959c-7.998,7.998-7.998,20.965,0,28.963
				C116.418,329.702,129.386,329.702,137.384,321.704z"/>
			<path d="M301.224,321.704l5.998-5.998v73.437c0,11.311,9.169,20.48,20.48,20.48s20.48-9.169,20.48-20.48v-73.437l5.998,5.998
				c7.998,7.998,20.965,7.998,28.963,0c7.998-7.998,7.998-20.965,0-28.963l-40.959-40.959c-0.477-0.477-0.979-0.929-1.502-1.357
				c-0.237-0.194-0.486-0.363-0.729-0.545c-0.291-0.218-0.577-0.444-0.88-0.647c-0.291-0.195-0.594-0.364-0.893-0.542
				c-0.275-0.164-0.543-0.337-0.826-0.488c-0.305-0.163-0.619-0.301-0.93-0.448c-0.295-0.139-0.584-0.286-0.887-0.411
				c-0.302-0.125-0.611-0.226-0.917-0.336c-0.324-0.116-0.643-0.241-0.975-0.341c-0.307-0.093-0.619-0.161-0.929-0.239
				c-0.337-0.085-0.67-0.179-1.014-0.248c-0.359-0.071-0.721-0.113-1.082-0.165c-0.3-0.043-0.595-0.1-0.899-0.13
				c-1.344-0.133-2.698-0.132-4.042,0c-0.304,0.03-0.599,0.087-0.898,0.13c-0.361,0.052-0.724,0.094-1.083,0.165
				c-0.343,0.068-0.676,0.162-1.013,0.247c-0.31,0.078-0.623,0.146-0.93,0.239c-0.331,0.1-0.65,0.224-0.974,0.341
				c-0.307,0.11-0.616,0.211-0.918,0.336c-0.302,0.125-0.592,0.272-0.886,0.411c-0.311,0.147-0.625,0.285-0.93,0.448
				c-0.283,0.151-0.551,0.324-0.826,0.488c-0.299,0.178-0.601,0.347-0.892,0.542c-0.304,0.203-0.59,0.429-0.882,0.648
				c-0.242,0.182-0.491,0.35-0.727,0.544c-0.522,0.428-1.025,0.88-1.502,1.357l-40.959,40.959c-7.998,7.998-7.998,20.965,0,28.963
				C280.258,329.702,293.226,329.702,301.224,321.704z"/>
		</g>
	</g>
</g>
<g>
</g>
<g>
</g>
<g>
</g>
<g>
</g>
<g>
</g>
<g>
</g>
<g>
</g>
<g>
</g>
<g>
</g>
<g>
</g>
<g>
</g>
<g>
</g>
<g>
</g>
<g>
</g>
<g>
</g>
</svg>
